<svg width="28" height="28" viewBox="0 0 28 28" fill="none" xmlns="http://www.w3.org/2000/svg">
<mask id="mask0_13_3055" style="mask-type:alpha" maskUnits="userSpaceOnUse" x="0" y="0" width="28" height="28">
<rect width="28" height="28" fill="#D9D9D9"/>
</mask>
<g mask="url(#mask0_13_3055)">
<mask id="mask1_13_3055" style="mask-type:alpha" maskUnits="userSpaceOnUse" x="0" y="0" width="28" height="28">
<rect width="28" height="28" fill="#D9D9D9"/>
</mask>
<g mask="url(#mask1_13_3055)">
<path d="M8.16667 19.8333V8.16667H19.8333V19.8333H8.16667ZM10.5 17.5H17.5V10.5H10.5V17.5ZM5.83333 22.1667V24.5C5.19167 24.5 4.64236 24.2715 4.18542 23.8146C3.72847 23.3576 3.5 22.8083 3.5 22.1667H5.83333ZM3.5 19.8333V17.5H5.83333V19.8333H3.5ZM3.5 15.1667V12.8333H5.83333V15.1667H3.5ZM3.5 10.5V8.16667H5.83333V10.5H3.5ZM5.83333 5.83333H3.5C3.5 5.19167 3.72847 4.64236 4.18542 4.18542C4.64236 3.72847 5.19167 3.5 5.83333 3.5V5.83333ZM8.16667 24.5V22.1667H10.5V24.5H8.16667ZM8.16667 5.83333V3.5H10.5V5.83333H8.16667ZM12.8333 24.5V22.1667H15.1667V24.5H12.8333ZM12.8333 5.83333V3.5H15.1667V5.83333H12.8333ZM17.5 24.5V22.1667H19.8333V24.5H17.5ZM17.5 5.83333V3.5H19.8333V5.83333H17.5ZM22.1667 24.5V22.1667H24.5C24.5 22.8083 24.2715 23.3576 23.8146 23.8146C23.3576 24.2715 22.8083 24.5 22.1667 24.5ZM22.1667 19.8333V17.5H24.5V19.8333H22.1667ZM22.1667 15.1667V12.8333H24.5V15.1667H22.1667ZM22.1667 10.5V8.16667H24.5V10.5H22.1667ZM22.1667 5.83333V3.5C22.8083 3.5 23.3576 3.72847 23.8146 4.18542C24.2715 4.64236 24.5 5.19167 24.5 5.83333H22.1667Z" fill="#1F2328"/>
</g>
</g>
</svg>
