<svg width="28" height="28" viewBox="0 0 28 28" fill="none" xmlns="http://www.w3.org/2000/svg">
<mask id="mask0_13_3051" style="mask-type:alpha" maskUnits="userSpaceOnUse" x="0" y="0" width="28" height="28">
<rect width="28" height="28" fill="#D9D9D9"/>
</mask>
<g mask="url(#mask0_13_3051)">
<path d="M8.16634 10.4999C7.52467 10.4999 6.97537 10.2714 6.51842 9.8145C6.06148 9.35756 5.83301 8.80825 5.83301 8.16659C5.83301 7.52492 6.06148 6.97561 6.51842 6.51867C6.97537 6.06172 7.52467 5.83325 8.16634 5.83325C8.80801 5.83325 9.35731 6.06172 9.81426 6.51867C10.2712 6.97561 10.4997 7.52492 10.4997 8.16659C10.4997 8.80825 10.2712 9.35756 9.81426 9.8145C9.35731 10.2714 8.80801 10.4999 8.16634 10.4999ZM5.83301 25.6666C5.50245 25.6666 5.22537 25.5548 5.00176 25.3312C4.77815 25.1076 4.66634 24.8305 4.66634 24.4999C4.02467 24.4999 3.47537 24.2714 3.01842 23.8145C2.56148 23.3576 2.33301 22.8083 2.33301 22.1666V15.1666H5.83301V14.2916C5.83301 13.5527 6.08579 12.9305 6.59134 12.4249C7.0969 11.9194 7.71912 11.6666 8.45801 11.6666C8.8469 11.6666 9.20662 11.7444 9.53718 11.8999C9.86773 12.0555 10.1691 12.2694 10.4413 12.5416L12.0747 14.3499C12.2302 14.5055 12.3809 14.6513 12.5268 14.7874C12.6726 14.9235 12.833 15.0499 13.008 15.1666H20.9997V5.65825C20.9997 5.38603 20.9025 5.1527 20.708 4.95825C20.5136 4.76381 20.2802 4.66659 20.008 4.66659C19.8913 4.66659 19.7795 4.69089 19.6726 4.7395C19.5656 4.78811 19.4636 4.86103 19.3663 4.95825L17.908 6.41659C18.0052 6.74714 18.0247 7.07284 17.9663 7.39367C17.908 7.7145 17.7913 8.01103 17.6163 8.28325L14.408 5.01659C14.6802 4.84159 14.9719 4.72978 15.283 4.68117C15.5941 4.63256 15.9052 4.66659 16.2163 4.78325L17.6747 3.32492C17.9858 3.01381 18.3406 2.77075 18.7393 2.59575C19.1379 2.42075 19.5608 2.33325 20.008 2.33325C20.9413 2.33325 21.7288 2.65409 22.3705 3.29575C23.0122 3.93742 23.333 4.72492 23.333 5.65825V15.1666H25.6663V22.1666C25.6663 22.8083 25.4379 23.3576 24.9809 23.8145C24.524 24.2714 23.9747 24.4999 23.333 24.4999C23.333 24.8305 23.2212 25.1076 22.9976 25.3312C22.774 25.5548 22.4969 25.6666 22.1663 25.6666H5.83301ZM4.66634 22.1666H23.333V17.4999H4.66634V22.1666Z" fill="#1F2328"/>
</g>
</svg>
