<svg width="28" height="28" viewBox="0 0 28 28" fill="none" xmlns="http://www.w3.org/2000/svg">
<mask id="mask0_13_3041" style="mask-type:alpha" maskUnits="userSpaceOnUse" x="0" y="0" width="28" height="28">
<rect width="28" height="28" fill="#D9D9D9"/>
</mask>
<g mask="url(#mask0_13_3041)">
<path d="M2.33301 22.1666V15.1666C2.33301 14.6416 2.43995 14.1652 2.65384 13.7374C2.86773 13.3096 3.14967 12.9305 3.49967 12.5999V9.33325C3.49967 8.36103 3.83995 7.53464 4.52051 6.85409C5.20106 6.17353 6.02745 5.83325 6.99967 5.83325H11.6663C12.1136 5.83325 12.5316 5.91589 12.9205 6.08117C13.3094 6.24645 13.6691 6.47492 13.9997 6.76659C14.3302 6.47492 14.69 6.24645 15.0788 6.08117C15.4677 5.91589 15.8858 5.83325 16.333 5.83325H20.9997C21.9719 5.83325 22.7983 6.17353 23.4788 6.85409C24.1594 7.53464 24.4997 8.36103 24.4997 9.33325V12.5999C24.8497 12.9305 25.1316 13.3096 25.3455 13.7374C25.5594 14.1652 25.6663 14.6416 25.6663 15.1666V22.1666H23.333V19.8333H4.66634V22.1666H2.33301ZM15.1663 11.6666H22.1663V9.33325C22.1663 9.0027 22.0545 8.72561 21.8309 8.502C21.6073 8.27839 21.3302 8.16659 20.9997 8.16659H16.333C16.0025 8.16659 15.7254 8.27839 15.5018 8.502C15.2781 8.72561 15.1663 9.0027 15.1663 9.33325V11.6666ZM5.83301 11.6666H12.833V9.33325C12.833 9.0027 12.7212 8.72561 12.4976 8.502C12.274 8.27839 11.9969 8.16659 11.6663 8.16659H6.99967C6.66912 8.16659 6.39204 8.27839 6.16842 8.502C5.94481 8.72561 5.83301 9.0027 5.83301 9.33325V11.6666ZM4.66634 17.4999H23.333V15.1666C23.333 14.836 23.2212 14.5589 22.9976 14.3353C22.774 14.1117 22.4969 13.9999 22.1663 13.9999H5.83301C5.50245 13.9999 5.22537 14.1117 5.00176 14.3353C4.77815 14.5589 4.66634 14.836 4.66634 15.1666V17.4999Z" fill="#1F2328"/>
</g>
</svg>
