<svg width="24" height="24" viewBox="0 0 24 24" fill="none" xmlns="http://www.w3.org/2000/svg">
<path fill-rule="evenodd" clip-rule="evenodd" d="M14.6169 19.552C15.6659 18.054 16.7569 15.851 16.9749 13H19.9299C19.5469 16.052 17.4409 18.57 14.6169 19.552ZM4.06909 13H7.06109C7.26709 15.862 8.34409 18.056 9.40709 19.561C6.57009 18.584 4.45409 16.061 4.06909 13ZM9.43809 4.42896C8.38609 5.92696 7.28509 8.13696 7.06509 11H4.06909C4.45509 7.92796 6.58609 5.39696 9.43809 4.42896ZM9.0791 11C9.3851 7.72797 11.0591 5.44997 12.0261 4.39697C13.0261 5.46797 14.6741 7.72497 14.9591 11H9.0791ZM9.08008 13H14.9621C14.6561 16.277 12.9781 18.555 12.0121 19.608C10.9651 18.498 9.35908 16.272 9.08008 13ZM19.9299 11.0001H16.9779C16.7729 8.15106 15.7079 5.96406 14.6499 4.46106C17.4579 5.45106 19.5489 7.96006 19.9299 11.0001ZM22 12C22 6.496 17.529 2.018 12.028 2.002C12.024 2.002 12.02 2.001 12.015 2.001C12.011 2.001 12.005 2 12 2C6.486 2 2 6.487 2 12C2 17.514 6.486 22 12 22C12.006 22 12.011 21.999 12.015 21.999C12.017 21.999 12.018 22 12.02 22C12.023 22 12.026 21.998 12.028 21.998C17.529 21.983 22 17.504 22 12Z" fill="#03133D"/>
<mask id="mask0_13_4883" style="mask-type:luminance" maskUnits="userSpaceOnUse" x="2" y="2" width="20" height="20">
<path fill-rule="evenodd" clip-rule="evenodd" d="M14.6169 19.552C15.6659 18.054 16.7569 15.851 16.9749 13H19.9299C19.5469 16.052 17.4409 18.57 14.6169 19.552ZM4.06909 13H7.06109C7.26709 15.862 8.34409 18.056 9.40709 19.561C6.57009 18.584 4.45409 16.061 4.06909 13ZM9.43809 4.42896C8.38609 5.92696 7.28509 8.13696 7.06509 11H4.06909C4.45509 7.92796 6.58609 5.39696 9.43809 4.42896ZM9.0791 11C9.3851 7.72797 11.0591 5.44997 12.0261 4.39697C13.0261 5.46797 14.6741 7.72497 14.9591 11H9.0791ZM9.08008 13H14.9621C14.6561 16.277 12.9781 18.555 12.0121 19.608C10.9651 18.498 9.35908 16.272 9.08008 13ZM19.9299 11.0001H16.9779C16.7729 8.15106 15.7079 5.96406 14.6499 4.46106C17.4579 5.45106 19.5489 7.96006 19.9299 11.0001ZM22 12C22 6.496 17.529 2.018 12.028 2.002C12.024 2.002 12.02 2.001 12.015 2.001C12.011 2.001 12.005 2 12 2C6.486 2 2 6.487 2 12C2 17.514 6.486 22 12 22C12.006 22 12.011 21.999 12.015 21.999C12.017 21.999 12.018 22 12.02 22C12.023 22 12.026 21.998 12.028 21.998C17.529 21.983 22 17.504 22 12Z" fill="white"/>
</mask>
<g mask="url(#mask0_13_4883)">
<rect width="24" height="24" fill="white"/>
</g>
</svg>
