<svg width="41" height="35" viewBox="0 0 41 35" fill="none" xmlns="http://www.w3.org/2000/svg">
<path fill-rule="evenodd" clip-rule="evenodd" d="M40.8202 5.46638C34.7062 8.50327 31.6493 12.0716 31.6493 16.1714C34.2553 16.4751 36.4101 17.5506 38.114 19.398C39.8179 21.2455 40.6698 23.3839 40.6698 25.8134C40.6698 28.3948 39.843 30.5712 38.1892 32.3427C36.5354 34.1143 34.4557 35 31.95 35C29.1436 35 26.7131 33.8485 24.6584 31.5456C22.6037 29.2426 21.5764 26.4461 21.5764 23.1562C21.5764 13.2863 27.0388 5.56763 37.9637 0L40.8202 5.46638ZM19.2438 5.46638C13.0797 8.50327 9.99776 12.0716 9.99776 16.1714C12.6538 16.4751 14.8338 17.5506 16.5376 19.398C18.2415 21.2455 19.0935 23.3839 19.0935 25.8134C19.0935 28.3948 18.2541 30.5712 16.5752 32.3427C14.8964 34.1143 12.8042 35 10.2984 35C7.49204 35 5.07406 33.8485 3.04443 31.5456C1.0148 29.2426 0 26.4461 0 23.1562C0 13.2863 5.43732 5.56763 16.3121 0L19.2438 5.46638Z" fill="#F4511E"/>
</svg>
